<svg data-v-b6224046="" data-v-065fe7fe="" xmlns="http://www.w3.org/2000/svg" xmlns:xlink="http://www.w3.org/1999/xlink" version="1.1" x="0px" y="0px" viewBox="0 0 305.29 124.97" xml:space="preserve"><g id="Rough_Work" class="st0" data-v-b6224046=""></g><g id="Layer_1" data-v-b6224046=""><g data-v-b6224046=""><g data-v-b6224046=""><g data-v-b6224046=""><path class="st13" fill="white" d="M138.52,58.83h16.2v6.25h-22.74v-39.8h6.54V58.83z" data-v-b6224046=""></path><path class="st13" fill="white" d="M164.98,31.23c-0.78,0.78-1.7,1.17-2.76,1.17c-1.06,0-1.98-0.39-2.76-1.17c-0.78-0.78-1.16-1.7-1.16-2.76      c0-1.06,0.38-1.98,1.14-2.76c0.76-0.78,1.69-1.16,2.79-1.16c1.1,0,2.03,0.39,2.79,1.16c0.76,0.78,1.14,1.7,1.14,2.76      C166.15,29.54,165.76,30.46,164.98,31.23z M159.16,65.09V36.66h6.14v28.43H159.16z" data-v-b6224046=""></path><path class="st13" fill="white" d="M177.75,44.47c0,0.94,0.53,1.68,1.57,2.22c1.05,0.54,2.31,1.04,3.78,1.49c1.47,0.45,2.98,0.92,4.52,1.39      s2.83,1.35,3.87,2.64c1.03,1.29,1.55,2.91,1.55,4.86c0,2.73-1.05,4.87-3.16,6.43c-2.1,1.55-4.75,2.33-7.93,2.33      c-2.81,0-5.21-0.59-7.22-1.76c-2.01-1.17-3.47-2.81-4.38-4.89l5.29-3.07c0.99,2.73,3.09,4.09,6.31,4.09      c3.22,0,4.83-1.06,4.83-3.19c0-0.91-0.52-1.65-1.56-2.22c-1.04-0.57-2.3-1.08-3.77-1.53c-1.47-0.45-2.98-0.92-4.52-1.39      c-1.54-0.47-2.84-1.33-3.88-2.56c-1.04-1.23-1.56-2.8-1.56-4.69c0-2.61,0.99-4.72,2.98-6.31c1.99-1.59,4.46-2.39,7.42-2.39      c2.35,0,4.44,0.52,6.28,1.56c1.84,1.04,3.25,2.49,4.24,4.35l-5.17,2.9c-0.99-2.16-2.77-3.24-5.34-3.24      c-1.17,0-2.16,0.25-2.96,0.76C178.14,42.76,177.75,43.5,177.75,44.47z" data-v-b6224046=""></path><path class="st13" fill="white" d="M213.17,42.58h-7.05v13.64c0,1.18,0.26,2.02,0.8,2.53c0.53,0.51,1.32,0.8,2.36,0.85      c1.04,0.06,2.34,0.05,3.89-0.03v5.51c-4.7,0.57-8.07,0.16-10.12-1.22c-2.05-1.38-3.07-3.93-3.07-7.65V42.58h-5.23v-5.91h5.23      v-6.14l6.14-1.82v7.96h7.05V42.58z" data-v-b6224046=""></path><path fill="white" class="st13" d="M224.57,31.23c-0.78,0.78-1.7,1.17-2.76,1.17c-1.06,0-1.98-0.39-2.76-1.17c-0.78-0.78-1.16-1.7-1.16-2.76      c0-1.06,0.38-1.98,1.14-2.76c0.76-0.78,1.69-1.16,2.79-1.16c1.1,0,2.03,0.39,2.79,1.16c0.76,0.78,1.14,1.7,1.14,2.76      C225.73,29.54,225.34,30.46,224.57,31.23z M218.74,65.09V36.66h6.14v28.43H218.74z" data-v-b6224046=""></path><path class="st13" fill="white" d="M246.94,35.92c3.26,0,5.89,1.04,7.9,3.13c2.01,2.09,3.01,4.95,3.01,8.58v17.45h-6.14V48.26      c0-2.12-0.57-3.75-1.71-4.89c-1.14-1.14-2.69-1.71-4.66-1.71c-2.16,0-3.9,0.67-5.23,2.02c-1.33,1.35-1.99,3.4-1.99,6.17v15.24      h-6.14V36.66h6.14v3.64C239.98,37.38,242.92,35.92,246.94,35.92z" data-v-b6224046=""></path><path class="st13" fill="white" d="M287.07,36.66h6.03v27.12c0,4.32-1.42,7.64-4.26,9.95c-2.84,2.31-6.29,3.47-10.35,3.47      c-6.56,0-11.05-2.29-13.47-6.88l5.29-3.07c1.48,2.92,4.24,4.38,8.3,4.38c2.65,0,4.73-0.69,6.23-2.07      c1.5-1.39,2.25-3.31,2.25-5.77v-3.47c-2.31,3.3-5.61,4.95-9.89,4.95c-4.02,0-7.41-1.43-10.18-4.29      c-2.77-2.86-4.15-6.32-4.15-10.38s1.38-7.51,4.15-10.38c2.77-2.86,6.16-4.29,10.18-4.29c4.28,0,7.58,1.65,9.89,4.95V36.66z       M271.58,56.96c1.72,1.71,3.88,2.56,6.45,2.56s4.73-0.85,6.45-2.56c1.72-1.7,2.59-3.83,2.59-6.37s-0.86-4.66-2.59-6.37      c-1.72-1.7-3.88-2.56-6.45-2.56s-4.73,0.85-6.45,2.56c-1.72,1.71-2.59,3.83-2.59,6.37S269.86,55.25,271.58,56.96z" data-v-b6224046=""></path></g><g data-v-b6224046=""><path fill="white" class="st13" d="M146.37,93.63c-1.63,1.63-3.62,2.45-5.97,2.45s-4.34-0.82-5.97-2.45c-1.63-1.63-2.45-3.62-2.45-5.97      c0-2.35,0.82-4.34,2.45-5.97c1.63-1.63,3.62-2.45,5.97-2.45s4.34,0.82,5.97,2.45c1.63,1.63,2.45,3.62,2.45,5.97      C148.82,90.01,148,92,146.37,93.63z M136.31,91.82c1.11,1.11,2.47,1.66,4.09,1.66s2.99-0.55,4.09-1.66      c1.11-1.11,1.66-2.49,1.66-4.16c0-1.67-0.55-3.06-1.66-4.16c-1.11-1.11-2.47-1.66-4.09-1.66s-2.99,0.55-4.09,1.66      c-1.11,1.11-1.66,2.49-1.66,4.16C134.65,89.33,135.2,90.72,136.31,91.82z" data-v-b6224046=""></path><path fill="white" class="st13" d="M157.65,83.88c1.59,0,2.95,0.59,4.08,1.77c1.13,1.18,1.69,2.63,1.69,4.33c0,1.72-0.56,3.16-1.69,4.34      c-1.13,1.18-2.49,1.76-4.08,1.76c-1.76,0-3.12-0.65-4.06-1.95v6.29h-2.5V84.18h2.5v1.67C154.54,84.53,155.89,83.88,157.65,83.88      z M154.64,92.63c0.7,0.7,1.57,1.05,2.62,1.05c1.05,0,1.92-0.35,2.62-1.05c0.7-0.7,1.04-1.59,1.04-2.66      c0-1.07-0.35-1.95-1.04-2.66c-0.7-0.7-1.57-1.06-2.62-1.06c-1.05,0-1.92,0.35-2.62,1.06c-0.7,0.7-1.04,1.59-1.04,2.66      C153.6,91.04,153.94,91.93,154.64,92.63z" data-v-b6224046=""></path><path fill="white" class="st13" d="M171.94,86.59h-2.88v5.57c0,0.48,0.11,0.82,0.32,1.03c0.22,0.21,0.54,0.32,0.96,0.35      c0.42,0.02,0.95,0.02,1.59-0.01v2.25c-1.92,0.23-3.29,0.07-4.13-0.5c-0.83-0.56-1.25-1.6-1.25-3.12v-5.57h-2.13v-2.41h2.13      v-2.51l2.5-0.74v3.25h2.88V86.59z" data-v-b6224046=""></path><path class="st13" fill="white" d="M176.59,81.96c-0.32,0.32-0.69,0.48-1.12,0.48c-0.43,0-0.81-0.16-1.13-0.48      c-0.32-0.32-0.48-0.69-0.48-1.12c0-0.43,0.15-0.81,0.46-1.13c0.31-0.32,0.69-0.47,1.14-0.47c0.45,0,0.83,0.16,1.14,0.47      c0.31,0.32,0.46,0.69,0.46,1.13C177.07,81.27,176.91,81.65,176.59,81.96z M174.21,95.78v-11.6h2.5v11.6H174.21z" data-v-b6224046=""></path><path fill="white" class="st13" d="M192.28,83.88c1.31,0,2.37,0.43,3.18,1.28c0.8,0.85,1.21,1.99,1.21,3.43v7.19h-2.5v-7.03      c0-0.8-0.2-1.43-0.6-1.87c-0.4-0.44-0.95-0.66-1.65-0.66c-0.77,0-1.39,0.26-1.84,0.77c-0.46,0.51-0.68,1.28-0.68,2.3v6.49h-2.5      v-7.03c0-0.8-0.19-1.43-0.57-1.87c-0.38-0.44-0.92-0.66-1.61-0.66c-0.76,0-1.38,0.26-1.86,0.78c-0.48,0.52-0.72,1.28-0.72,2.28      v6.49h-2.5v-11.6h2.5v1.39c0.74-1.13,1.85-1.69,3.32-1.69c1.48,0,2.58,0.61,3.29,1.83C189.51,84.49,190.69,83.88,192.28,83.88z" data-v-b6224046=""></path><path fill="white" class="st13" d="M201.73,81.96c-0.32,0.32-0.69,0.48-1.12,0.48c-0.43,0-0.81-0.16-1.13-0.48      c-0.32-0.32-0.48-0.69-0.48-1.12c0-0.43,0.15-0.81,0.46-1.13c0.31-0.32,0.69-0.47,1.14-0.47c0.45,0,0.83,0.16,1.14,0.47      c0.31,0.32,0.46,0.69,0.46,1.13C202.21,81.27,202.05,81.65,201.73,81.96z M199.35,95.78v-11.6h2.5v11.6H199.35z" data-v-b6224046=""></path><path fill="white" class="st13" d="M207.75,93.41h5.64v2.37h-9.05V94.1l5.43-7.56h-5.19v-2.37h8.58v1.67L207.75,93.41z" data-v-b6224046=""></path><path fill="white" class="st13" d="M224.22,84.18h2.5v11.6h-2.5V94.1c-0.94,1.31-2.3,1.97-4.06,1.97c-1.59,0-2.95-0.59-4.08-1.77      c-1.13-1.18-1.69-2.62-1.69-4.33c0-1.72,0.56-3.16,1.69-4.34c1.13-1.17,2.49-1.76,4.08-1.76c1.76,0,3.12,0.65,4.06,1.95V84.18z       M217.93,92.63c0.7,0.7,1.57,1.05,2.62,1.05c1.05,0,1.93-0.35,2.62-1.05c0.7-0.7,1.04-1.59,1.04-2.66      c0-1.07-0.35-1.95-1.04-2.66c-0.7-0.7-1.57-1.06-2.62-1.06c-1.05,0-1.92,0.35-2.62,1.06c-0.7,0.7-1.04,1.59-1.04,2.66      C216.89,91.04,217.23,91.93,217.93,92.63z" data-v-b6224046=""></path><path fill="white" lass="st13" d="M236.11,86.59h-2.88v5.57c0,0.48,0.11,0.82,0.32,1.03c0.22,0.21,0.54,0.32,0.96,0.35      c0.42,0.02,0.95,0.02,1.59-0.01v2.25c-1.92,0.23-3.29,0.07-4.13-0.5c-0.83-0.56-1.25-1.6-1.25-3.12v-5.57h-2.13v-2.41h2.13      v-2.51l2.5-0.74v3.25h2.88V86.59z" data-v-b6224046=""></path><path fill="white" class="st13" d="M240.76,81.96c-0.32,0.32-0.69,0.48-1.12,0.48c-0.43,0-0.81-0.16-1.13-0.48      c-0.32-0.32-0.48-0.69-0.48-1.12c0-0.43,0.15-0.81,0.46-1.13c0.31-0.32,0.69-0.47,1.14-0.47c0.45,0,0.83,0.16,1.14,0.47      c0.31,0.32,0.46,0.69,0.46,1.13C241.24,81.27,241.08,81.65,240.76,81.96z M238.39,95.78v-11.6h2.5v11.6H238.39z" data-v-b6224046=""></path><path class="st13" fill="white" d="M249.26,96.08c-1.7,0-3.15-0.59-4.34-1.76c-1.19-1.17-1.79-2.62-1.79-4.34c0-1.72,0.59-3.16,1.79-4.34      c1.19-1.17,2.64-1.76,4.34-1.76c1.72,0,3.17,0.59,4.35,1.76s1.77,2.62,1.77,4.34c0,1.72-0.59,3.16-1.77,4.34      C252.43,95.49,250.98,96.08,249.26,96.08z M246.69,92.6c0.7,0.7,1.55,1.04,2.57,1.04c1.02,0,1.88-0.35,2.57-1.04      c0.7-0.7,1.04-1.57,1.04-2.62c0-1.05-0.35-1.92-1.04-2.62c-0.7-0.7-1.55-1.04-2.57-1.04c-1.02,0-1.88,0.35-2.57,1.04      c-0.7,0.7-1.04,1.57-1.04,2.62C245.64,91.03,245.99,91.9,246.69,92.6z" data-v-b6224046=""></path><path fill="white" class="st13" d="M263.76,83.88c1.33,0,2.4,0.43,3.22,1.28c0.82,0.85,1.23,2.02,1.23,3.5v7.12h-2.5v-6.87      c0-0.87-0.23-1.53-0.7-1.99c-0.46-0.46-1.1-0.7-1.9-0.7c-0.88,0-1.59,0.27-2.13,0.82c-0.54,0.55-0.81,1.39-0.81,2.52v6.22h-2.5      v-11.6h2.5v1.48C260.92,84.47,262.12,83.88,263.76,83.88z" data-v-b6224046=""></path><path fill="white" class="st13" d="M273.64,95.54c-0.34,0.34-0.75,0.51-1.23,0.51c-0.48,0-0.89-0.17-1.23-0.51      c-0.34-0.34-0.51-0.75-0.51-1.23c0-0.48,0.17-0.89,0.5-1.23c0.33-0.34,0.75-0.51,1.24-0.51c0.48,0,0.89,0.17,1.23,0.51      c0.34,0.34,0.51,0.75,0.51,1.23C274.15,94.79,273.98,95.2,273.64,95.54z" data-v-b6224046=""></path><path fill="white" class="st13" d="M285.07,84.18h2.5v11.6h-2.5V94.1c-0.94,1.31-2.3,1.97-4.06,1.97c-1.59,0-2.95-0.59-4.08-1.77      c-1.13-1.18-1.69-2.62-1.69-4.33c0-1.72,0.56-3.16,1.69-4.34c1.13-1.17,2.49-1.76,4.08-1.76c1.76,0,3.12,0.65,4.06,1.95V84.18z       M278.79,92.63c0.7,0.7,1.57,1.05,2.62,1.05c1.05,0,1.92-0.35,2.62-1.05c0.7-0.7,1.04-1.59,1.04-2.66      c0-1.07-0.35-1.95-1.04-2.66c-0.7-0.7-1.57-1.06-2.62-1.06c-1.05,0-1.93,0.35-2.62,1.06c-0.7,0.7-1.04,1.59-1.04,2.66      C277.74,91.04,278.09,91.93,278.79,92.63z" data-v-b6224046=""></path><path fill="white" class="st13" d="M292.88,81.96c-0.32,0.32-0.69,0.48-1.13,0.48c-0.43,0-0.81-0.16-1.12-0.48s-0.48-0.69-0.48-1.12      c0-0.43,0.15-0.81,0.46-1.13c0.31-0.32,0.69-0.47,1.14-0.47c0.45,0,0.83,0.16,1.14,0.47c0.31,0.32,0.46,0.69,0.46,1.13      C293.35,81.27,293.19,81.65,292.88,81.96z M290.5,95.78v-11.6h2.5v11.6H290.5z" data-v-b6224046=""></path></g></g><g data-v-b6224046=""><linearGradient id="SVGID_1_" gradientUnits="userSpaceOnUse" x1="-31.1634" y1="112.6989" x2="85.9111" y2="-15.88" data-v-b6224046=""><stop offset="0" style="stop-color:#5A189A;" data-v-b6224046=""></stop><stop offset="1" style="stop-color:#9D4EDD;" data-v-b6224046=""></stop></linearGradient><path class="st2" fill="#0058df" d="M45.07,13.76c1.99-0.75,3.89,1.28,3.02,3.22L22.75,73.37l-3.03,6.75c-0.87,1.94-3.65,1.87-4.41-0.11     c-0.82-2.15-1.5-4.37-2.03-6.64c-0.87-3.75-1.33-7.65-1.33-11.66C11.94,39.79,25.71,21.08,45.07,13.76z" data-v-b6224046=""></path><linearGradient id="SVGID_00000165201435403614545520000017684321187983187361_" gradientUnits="userSpaceOnUse" x1="2.0369" y1="142.9286" x2="119.1114" y2="14.3497" data-v-b6224046=""><stop offset="0" style="stop-color:#5A189A;" data-v-b6224046=""></stop><stop offset="1" style="stop-color:#9D4EDD;" data-v-b6224046=""></stop></linearGradient><path fill="#0058df" d="M114.45,61.71     c0,3.33-0.32,6.58-0.92,9.73c-0.22,1.12-1.2,1.93-2.35,1.93H50.01c-1.74,0-2.89-1.79-2.18-3.37l25.43-56.58     c0.48-1.06,1.65-1.63,2.77-1.34C98.12,17.77,114.45,37.83,114.45,61.71z" data-v-b6224046=""></path><linearGradient id="SVGID_00000118365641922766296960000010191996966150528916_" gradientUnits="userSpaceOnUse" x1="12.7586" y1="152.6498" x2="129.8331" y2="24.0709" data-v-b6224046=""><stop offset="0" style="stop-color:#5A189A;" data-v-b6224046=""></stop><stop offset="1" style="stop-color:#9D4EDD;" data-v-b6224046=""></stop></linearGradient><path fill="#0058df" d="M96.72,94.87     c2.17,0,3.22,2.65,1.64,4.14c-9.18,8.66-21.55,13.97-35.17,13.97c-11.31,0-21.76-3.66-30.24-9.87c-1.73-1.26-3.37-2.64-4.93-4.1     c-1.57-1.49-0.52-4.13,1.64-4.13H96.72z" data-v-b6224046=""></path></g></g></g></svg>